<?xml version="1.0" ?><!DOCTYPE svg  PUBLIC '-//W3C//DTD SVG 1.1//EN'  'http://www.w3.org/Graphics/SVG/1.1/DTD/svg11.dtd'><svg enable-background="new 0 0 32 32" version="1.1" viewBox="0 0 32 32" xml:space="preserve" xmlns="http://www.w3.org/2000/svg" xmlns:xlink="http://www.w3.org/1999/xlink"><g id="outline"><path d="M26.31,26.05H5.69C2.55,26.05,0,23.51,0,20.39v-0.93c0-2.54,1.71-4.72,4.1-5.41c0-0.06,0-0.12,0-0.18   c0-4.37,3.58-7.92,7.97-7.92c2.95,0,5.58,1.58,6.97,4.09c0.68-0.21,1.42-0.3,2-0.3c2.44,0,4.03,1.93,4.41,4.06l0.85,0   c3.13,0,5.68,2.54,5.68,5.66v0.93C32,23.51,29.45,26.05,26.31,26.05z M12.07,7.95c-3.29,0-5.97,2.66-5.97,5.92   c0,0.25,0.02,0.52,0.07,0.84l0.15,1.02l-1.03,0.11C3.41,16.06,2,17.61,2,19.46v0.93c0,2.02,1.65,3.66,3.69,3.66h20.62   c2.03,0,3.69-1.64,3.69-3.66v-0.93c0-2.02-1.65-3.66-3.69-3.66l-2.76-0.01v-1c0-1.5-0.94-3.06-2.5-3.06   c-0.74,0-1.55,0.18-1.92,0.44l-1.04,0.72l-0.46-1.18C16.73,9.43,14.55,7.95,12.07,7.95z" fill="#3B97D3"/></g></svg>