<?xml version="1.0" ?><!DOCTYPE svg  PUBLIC '-//W3C//DTD SVG 1.1//EN'  'http://www.w3.org/Graphics/SVG/1.1/DTD/svg11.dtd'><svg enable-background="new 0 0 164 164" height="164px" id="Layer_1" version="1.1" viewBox="0 0 164 164" width="164px" xml:space="preserve" xmlns="http://www.w3.org/2000/svg" xmlns:xlink="http://www.w3.org/1999/xlink"><path clip-rule="evenodd" d="M36.977,114.281v26.892H0v-26.892H36.977L36.977,114.281z   M105.812,158.086H57.868c-8.063,0-14.657-6.595-14.657-14.657v-31.404c0-8.063,6.594-14.657,14.657-14.657h7.259V83.391  c-14.073-5.788-23.712-19.05-23.712-36.733c0-22.324,18.101-40.424,40.425-40.424c22.325,0,40.424,18.1,40.424,40.424  c0,16.056-7.922,28.633-20.16,35.112v15.597h3.707c8.063,0,14.657,6.595,14.657,14.657v31.404  C120.469,151.491,113.874,158.086,105.812,158.086L105.812,158.086z M84.628,50.344c4.321-3.027,1.641-9.807-3.533-9.159  L64.893,22.057L77.23,43.892C74.852,48.532,80.307,53.37,84.628,50.344L84.628,50.344z M49.755,46.658  c0,19.375,14.029,31.597,32.085,31.597c18.422,0,32.085-12.521,32.085-31.597c0-17.721-14.363-32.084-32.084-32.084  C64.12,14.573,49.755,28.937,49.755,46.658L49.755,46.658z M163.68,114.281v26.892h-36.977v-26.892H163.68z" fill="#333333" fill-rule="evenodd"/></svg>