<?xml version="1.0" ?><!DOCTYPE svg  PUBLIC '-//W3C//DTD SVG 1.1//EN'  'http://www.w3.org/Graphics/SVG/1.1/DTD/svg11.dtd'><svg enable-background="new 0 0 512 512" height="512px" id="Layer_1" version="1.1" viewBox="0 0 512 512" width="512px" xml:space="preserve" xmlns="http://www.w3.org/2000/svg" xmlns:xlink="http://www.w3.org/1999/xlink"><g><path d="M352,80v48c0,8.844-7.156,16-16,16H176c-8.844,0-16-7.156-16-16V80c0-8.844,7.156-16,16-16h32   c0-26.5,21.5-48,48-48s48,21.5,48,48h32C344.844,64,352,71.156,352,80z M273.594,64c0-9.719-7.875-17.594-17.594-17.594   S238.406,54.281,238.406,64S246.281,81.594,256,81.594S273.594,73.719,273.594,64z M400,80h-32v48h27c2.75,0,5,2.25,5,5v294   c0,2.75-2.25,5-5,5H117c-2.75,0-5-2.25-5-5V133c0-2.75,2.25-5,5-5h27V80h-32c-17.672,0-32,14.328-32,32v336   c0,17.656,14.328,32,32,32h288c17.672,0,32-14.344,32-32V112C432,94.328,417.672,80,400,80z M147.672,368h216.656   c2.031,0,3.672-1.641,3.672-3.672v-8.656c0-2.031-1.641-3.672-3.672-3.672H147.672c-2.031,0-3.672,1.641-3.672,3.672v8.656   C144,366.359,145.641,368,147.672,368z M147.672,400h216.656c2.031,0,3.672-1.641,3.672-3.672v-8.656   c0-2.031-1.641-3.672-3.672-3.672H147.672c-2.031,0-3.672,1.641-3.672,3.672v8.656C144,398.359,145.641,400,147.672,400z    M312.031,286.188l-38.766-23.891l-52.109,35.719l-38.094-33.608L144,297.891v16.642c0,3.016,2.438,5.469,5.469,5.469h213.063   c3.03,0,5.469-2.453,5.469-5.469v-63.047L312.031,286.188z M312,212.5l-39.188-25.281l-50.406,35.188l-39.203-35.203L144,220.813   v56l39.203-33.608l39.203,34.563l50.406-34.548L312,267.375l56-34.719V176L312,212.5z" fill="#4D4D4D"/></g></svg>