<?xml version="1.0" ?><!DOCTYPE svg  PUBLIC '-//W3C//DTD SVG 1.1//EN'  'http://www.w3.org/Graphics/SVG/1.1/DTD/svg11.dtd'><svg enable-background="new 0 0 256 256" height="256px" id="Layer_1" version="1.1" viewBox="0 0 256 256" width="256px" xml:space="preserve" xmlns="http://www.w3.org/2000/svg" xmlns:xlink="http://www.w3.org/1999/xlink"><g><g><path d="M159.329,34.637c7.168,0.163,12.466,5.893,11.919,12.81c-0.527,6.666-6.301,20.987-14.436,20.875     c-8.132-0.112-11.981-14.683-11.477-21.399C145.855,39.955,152.161,34.475,159.329,34.637L159.329,34.637z M182.117,111.519     c-8.989-0.025-17.952-0.075-26.94-0.1c-8.988-0.051-17.951-0.074-26.915-0.124c0.245-11.437,1.57-21.936,5.739-28.391     c4.183-6.478,9.866-8.939,15.631-10.463c0.587,6.092,1.929,9.889,3.565,11.71c0.318-2.471,0.611-4.969,0.953-7.465     c0.781-0.798,1.562-1.622,2.321-2.447c0.683,0.85,1.392,1.674,2.05,2.497c0.074,2.397,0.147,4.744,0.22,7.116     c1.931-2.047,3.664-5.942,4.788-11.211c5.568,1.648,10.933,4.25,14.533,10.737C181.667,89.875,182.361,100.231,182.117,111.519     L182.117,111.519z" fill="#323232"/><path clip-rule="evenodd" d="M42.39,178.811c-2.687,0.025-4.982-2.222-5.104-4.993     c-0.122-2.822,2.003-5.095,4.69-5.119c12.993-0.125,25.986-0.25,38.98-0.375c2.71,0,4.982,2.199,5.104,4.97     c0.122,2.746-1.954,5.02-4.64,5.044C68.4,178.513,55.383,178.638,42.39,178.811L42.39,178.811z M41.56,157.312     c-2.687,0.025-4.958-2.221-5.006-4.992c-0.074-2.798,2.051-5.095,4.738-5.12c14.581-0.05,29.186-0.113,43.742-0.175     c14.581-0.062,29.186-0.124,43.767-0.175c2.711-0.024,4.983,2.174,5.057,4.919c0.071,2.697-2.028,4.944-4.739,4.97     c-14.605,0.1-29.21,0.176-43.79,0.274C70.747,157.113,56.14,157.213,41.56,157.312L41.56,157.312z M41.096,135.664     c-2.687,0-4.885-2.271-4.934-5.043c0-2.822,2.174-5.094,4.86-5.094c22.739,0.025,45.502,0.038,68.24,0.05     c22.737,0.012,45.5,0.05,68.262,0.05c2.664,0.024,4.887,2.197,4.861,4.918c0.049,2.697-2.125,4.894-4.787,4.894     c-22.762,0.026-45.525,0.063-68.263,0.1C86.596,135.576,63.833,135.614,41.096,135.664L41.096,135.664z M223.905,173.52     c4.054-0.876,8.083-1.782,12.138-2.697c4.224-0.956,8.694,1.747,9.893,5.992l0,0c1.245,4.22-1.244,8.502-5.496,9.488     c-4.026,0.936-8.036,1.849-12.064,2.746C226.837,183.906,225.346,178.712,223.905,173.52L223.905,173.52z M95.364,200.66     c-3.444,2.398-6.701,5.641-10.16,8.065c-3.453,2.419-7.142,4.018-10.624,6.468c-0.596,0.42-0.779,1.147-0.611,1.748     c0.174,0.623,0.711,1.18,1.441,1.273c4.301,0.554,8.379,0.287,12.677,0.849c4.299,0.561,8.816,1.897,13.116,2.447     C99.248,214.594,97.293,207.628,95.364,200.66L95.364,200.66z M107.87,200.436c18.048-4.245,36.098-8.465,54.123-12.635     c18.023-4.168,36.073-8.289,54.122-12.385c0.195,0.8,0.414,1.549,0.635,2.322c-18.025,4.12-36.076,8.203-54.099,12.385     c-18.026,4.184-36.073,8.415-54.122,12.686C108.309,202.034,108.089,201.235,107.87,200.436L107.87,200.436z M99.296,199.737     c20.028-4.694,40.027-9.436,60.033-14.034c19.975-4.59,40.004-9.139,60.008-13.683c1.857,6.791,3.811,13.559,5.789,20.301     c-19.929,4.618-39.941,9.25-59.936,13.933c-19.986,4.682-40.005,9.514-60.032,14.307     C103.18,213.645,101.203,206.703,99.296,199.737L99.296,199.737z M142.574,182.782c12.506-2.847,25.009-5.743,37.514-8.565     c12.506-2.822,25.035-5.643,37.564-8.464c0.343,1.348,0.709,2.696,1.051,4.045c-12.505,2.797-25.03,5.656-37.514,8.49     c-12.478,2.833-25.009,5.743-37.49,8.614C143.283,185.554,142.916,184.181,142.574,182.782L142.574,182.782z M67.204,4     c24.009,0.723,48.018,1.436,72,2.147c24.008,0.712,48.041,1.448,72.05,2.173c2.711,0.074,4.689,2.322,4.371,4.993     c-2.491,24.971-4.896,49.997-5.959,75.058c-1.061,25.007-0.611,50.14,0.293,75.21c-3.248,0.698-6.447,1.448-9.697,2.147     c-0.902-24.671-1.451-49.353-0.512-73.985c0.941-24.686,3.199-49.29,5.569-73.886c-22.495-0.623-44.965-1.236-67.434-1.847     c-22.469-0.612-44.939-1.223-67.409-1.848c-1.246,15.232-2.369,30.438-3.346,45.645c-0.123,2.298-2.052,4.17-4.299,4.146     c-13.922-0.225-27.842-0.449-41.739-0.65c-1.271,29.764-2.04,59.535-1.319,89.292c0.72,29.748,2.491,59.428,4.225,89.117     c30.359-0.799,60.717-1.623,91.075-2.423c30.382-0.798,60.741-1.622,91.124-2.421c-1.222-11.612-2.369-23.247-3.419-34.884     c3.224-0.748,6.423-1.498,9.648-2.246c1.27,13.907,2.711,27.815,4.225,41.699c0.318,2.672-1.66,4.868-4.372,4.944     c-32.116,0.923-64.232,1.858-96.325,2.796c-32.092,0.936-64.21,1.872-96.301,2.821c-2.736,0.076-5.056-2.146-5.227-4.944     c-1.783-31.311-3.688-62.664-4.42-94.011c-0.732-31.355,0.172-62.773,1.539-94.16c0.074-1.499,0.732-2.798,1.759-3.696     C29.836,38.483,46.566,21.928,63.492,5.498c1.076-1.049,2.394-1.523,3.688-1.474C67.18,4.024,67.18,4.024,67.204,4L67.204,4z      M58.078,55.094l2.477-33.729L27.02,54.609L58.078,55.094L58.078,55.094z" fill="#323232" fill-rule="evenodd"/></g></g></svg>